<?xml version="1.0" standalone="no"?>
<!DOCTYPE svg PUBLIC "-//W3C//DTD SVG 20010904//EN"
 "http://www.w3.org/TR/2001/REC-SVG-20010904/DTD/svg10.dtd">
<svg version="1.0" xmlns="http://www.w3.org/2000/svg"
 width="1000.000000pt" height="1000.000000pt" viewBox="0 0 1000.000000 1000.000000"
 preserveAspectRatio="xMidYMid meet">
<metadata>
Created by potrace 1.11, written by Peter Selinger 2001-2013
</metadata>
<g transform="translate(0.000000,1000.000000) scale(0.100000,-0.100000)"
fill="#000000" stroke="none">
<path d="M4253 9840 c-21 -24 -114 -139 -206 -255 -93 -115 -181 -226 -197
-245 -16 -19 -175 -219 -355 -445 -179 -225 -339 -426 -355 -445 -16 -19 -60
-75 -100 -125 -39 -49 -83 -106 -99 -125 -15 -19 -60 -75 -100 -125 -39 -49
-77 -97 -84 -105 -6 -8 -91 -114 -187 -235 -215 -270 -203 -255 -215 -269 -37
-40 -71 -121 -78 -186 -5 -52 -6 -48 108 -490 47 -184 88 -343 90 -353 13 -57
47 -171 65 -220 l21 -57 52 68 c28 37 155 198 282 357 219 274 925 1160 985
1235 15 19 110 139 211 265 100 127 244 307 318 401 75 93 150 187 166 209
165 211 202 247 274 265 46 12 119 13 851 5 330 -3 1573 -15 1997 -19 159 -1
230 1 226 9 -10 15 -128 168 -276 355 -7 8 -37 47 -67 85 -272 348 -319 402
-362 420 -47 18 -85 21 -513 29 -827 17 -923 20 -965 32 -14 3 -346 7 -737 8
l-713 1 -37 -45z"/>
<path d="M2794 9794 c-36 -12 -69 -36 -92 -66 -7 -9 -18 -23 -25 -30 -7 -7
-152 -179 -322 -383 -171 -203 -317 -379 -326 -390 -10 -11 -90 -108 -179
-215 -89 -107 -179 -215 -200 -240 -21 -25 -99 -119 -175 -210 -75 -91 -144
-174 -153 -185 -88 -105 -346 -420 -375 -457 -51 -68 -56 -121 -22 -278 2 -14
7 -34 9 -45 18 -87 42 -192 67 -300 5 -22 50 -220 99 -440 50 -220 98 -429
106 -465 9 -36 18 -76 21 -90 2 -14 13 -62 23 -107 11 -46 21 -93 24 -105 4
-24 43 -194 78 -338 11 -47 22 -94 24 -105 2 -11 6 -29 8 -40 8 -39 57 -252
92 -400 20 -82 49 -208 66 -280 16 -71 34 -146 39 -166 5 -19 23 -57 40 -83
29 -43 44 -53 173 -116 77 -37 164 -78 191 -90 28 -13 79 -36 115 -52 36 -17
126 -57 200 -90 74 -33 172 -78 218 -99 46 -21 105 -45 133 -53 l50 -15 -7 42
c-3 23 -7 47 -8 52 -1 6 -6 26 -10 45 -4 19 -16 71 -26 115 -10 44 -21 91 -23
105 -3 14 -10 43 -15 65 -6 22 -14 55 -17 73 -3 18 -12 58 -20 90 -9 31 -18
71 -21 87 -3 17 -9 46 -14 65 -5 19 -11 46 -14 60 -7 36 -81 358 -106 465 -12
50 -23 99 -26 110 -7 39 -55 251 -75 335 -12 47 -22 92 -24 100 -2 8 -10 47
-19 85 -8 39 -29 131 -46 205 -18 74 -33 142 -35 150 -51 221 -146 633 -150
650 -15 68 -50 217 -76 325 -56 231 -46 304 62 436 48 60 329 396 383 459 41
48 510 619 579 705 18 21 44 53 58 70 15 16 142 172 283 345 142 173 272 333
291 355 108 131 245 301 245 306 0 7 -77 28 -100 27 -8 0 -150 3 -315 7 -533
12 -623 12 -661 -1z"/>
<path d="M7726 8673 c-1 -1 -616 -3 -1366 -5 l-1365 -2 -50 -26 c-46 -24 -110
-97 -268 -304 -12 -16 -38 -50 -57 -75 -129 -166 -350 -462 -368 -495 -13 -21
-20 -41 -17 -45 4 -3 786 -7 1738 -8 1210 -2 1745 -6 1776 -13 44 -11 90 -38
121 -69 9 -9 100 -126 203 -261 103 -135 198 -258 211 -275 13 -16 192 -248
398 -515 956 -1240 1047 -1355 1052 -1338 6 17 66 265 72 298 3 14 39 158 80
320 93 364 93 364 89 425 -5 62 -26 113 -74 179 -36 48 -478 624 -504 656 -7
8 -100 130 -207 270 -106 140 -196 257 -200 260 -3 3 -30 39 -60 80 -30 41
-57 77 -60 80 -3 3 -28 34 -55 70 -413 549 -518 685 -550 713 -31 28 -115 66
-160 72 -37 6 -374 12 -379 8z"/>
<path d="M6898 7415 c-2 -1 -52 -5 -113 -9 -60 -3 -125 -8 -144 -11 -18 -2
-51 -5 -72 -7 -21 -1 -39 -5 -39 -9 0 -6 126 -178 139 -189 3 -3 28 -34 56
-70 27 -36 52 -67 55 -70 3 -3 66 -81 140 -175 74 -93 140 -177 147 -185 15
-16 549 -689 652 -820 36 -45 70 -87 76 -94 5 -6 44 -53 84 -105 41 -52 80
-102 87 -110 141 -170 732 -917 750 -948 17 -28 26 -58 26 -90 1 -39 -77 -387
-122 -543 -5 -19 -28 -109 -49 -200 -41 -169 -162 -666 -206 -845 -14 -55 -27
-109 -29 -120 -5 -21 -108 -448 -127 -520 -5 -22 -11 -49 -13 -60 -2 -11 -20
-83 -39 -160 -89 -357 -120 -507 -107 -515 15 -9 47 -1 115 30 133 60 199 91
343 156 31 15 99 46 150 70 52 24 95 44 97 44 12 0 251 122 267 137 21 19 47
63 53 91 2 10 25 98 50 197 25 99 84 333 131 520 98 396 111 448 124 495 6 19
23 91 40 160 16 69 34 141 40 160 5 19 30 116 54 215 25 99 88 353 141 565 79
312 96 394 92 432 -6 50 -31 105 -69 152 -76 94 -223 279 -443 556 -138 173
-257 324 -266 335 -16 19 -315 394 -371 466 -91 115 -302 380 -374 469 -46 58
-136 170 -200 250 -63 80 -130 163 -147 185 -70 87 -110 124 -160 146 -51 23
-56 24 -434 25 -211 1 -384 0 -385 -1z"/>
<path d="M674 7193 c-27 -31 -54 -61 -59 -67 -6 -6 -67 -78 -135 -161 -69 -82
-130 -155 -136 -162 -6 -6 -83 -98 -170 -203 l-159 -191 -1 -67 c0 -49 6 -81
22 -117 12 -27 34 -108 48 -180 30 -150 29 -146 50 -245 8 -41 17 -86 20 -100
3 -14 10 -50 16 -80 6 -30 13 -66 16 -80 2 -14 7 -36 10 -50 3 -14 8 -38 11
-55 2 -16 8 -46 13 -65 5 -19 12 -51 15 -70 3 -19 18 -89 32 -155 14 -66 27
-131 29 -145 3 -14 25 -122 49 -240 24 -118 55 -271 69 -340 37 -182 92 -447
121 -585 14 -66 28 -133 30 -150 9 -72 46 -163 78 -196 24 -24 101 -65 258
-138 497 -231 668 -313 1329 -633 91 -44 228 -111 305 -148 77 -37 253 -123
390 -190 138 -67 311 -151 385 -187 74 -35 146 -70 159 -76 34 -17 151 -14
187 5 16 9 144 74 284 145 140 72 316 161 390 200 74 39 172 89 218 112 45 24
80 46 78 50 -6 9 -158 84 -601 296 -60 29 -200 96 -310 150 -110 53 -252 122
-315 152 -63 31 -176 85 -250 120 -74 36 -198 96 -275 133 -77 37 -216 105
-310 150 -93 45 -206 99 -250 120 -44 21 -156 75 -250 120 -93 45 -222 107
-285 137 -362 174 -356 170 -394 236 -25 43 -47 127 -101 397 -2 8 -10 49 -19
90 -8 41 -33 161 -55 265 -86 407 -121 575 -150 710 -37 174 -41 193 -47 230
-3 17 -7 36 -10 44 -3 11 -25 111 -48 227 -3 10 -12 53 -21 94 -9 41 -19 89
-21 105 -3 17 -9 46 -14 65 -5 19 -16 71 -25 115 -9 44 -41 193 -72 330 -30
138 -59 267 -63 288 -4 21 -9 40 -12 42 -2 3 -27 -21 -54 -52z"/>
<path d="M7607 5358 c-16 -59 -50 -201 -61 -258 -3 -14 -7 -35 -10 -47 -10
-40 -14 -55 -50 -218 -20 -88 -38 -169 -41 -180 -3 -11 -11 -51 -20 -90 -8
-38 -19 -86 -24 -105 -6 -19 -17 -66 -25 -105 -16 -74 -59 -261 -82 -360 -8
-33 -16 -69 -18 -80 -2 -11 -27 -121 -56 -245 -28 -124 -53 -234 -55 -245 -3
-11 -21 -92 -41 -180 -20 -88 -40 -178 -45 -200 -5 -22 -11 -50 -14 -61 -42
-183 -66 -290 -69 -308 -2 -11 -11 -52 -20 -91 -40 -169 -46 -196 -52 -232 -3
-21 -8 -41 -10 -44 -2 -5 -33 -141 -59 -261 -9 -43 -46 -110 -78 -140 -24 -24
-127 -76 -348 -178 -173 -79 -350 -160 -394 -180 -44 -21 -195 -90 -335 -155
-140 -64 -286 -132 -325 -150 -72 -34 -148 -70 -340 -157 -60 -28 -161 -75
-224 -104 -62 -30 -115 -54 -117 -54 -1 0 -47 -21 -101 -46 -54 -26 -163 -77
-243 -114 -295 -136 -350 -163 -350 -171 0 -4 12 -16 28 -27 26 -19 599 -308
807 -407 110 -53 163 -62 229 -39 43 15 46 16 189 83 49 23 90 41 92 41 2 0
36 15 77 34 40 19 244 112 453 206 362 164 414 188 573 261 37 17 110 50 162
74 52 23 144 66 204 94 59 28 109 51 111 51 1 0 45 20 96 44 52 24 180 83 284
131 334 153 333 153 373 231 16 32 79 271 96 364 2 14 11 54 20 90 8 36 18 83
22 105 3 22 8 43 10 46 2 3 5 19 8 35 3 16 17 81 32 144 14 63 35 151 45 195
10 44 31 139 48 210 27 122 158 692 166 725 5 21 103 447 170 740 30 134 62
271 71 303 43 166 24 206 -269 547 -12 14 -42 50 -67 80 -25 30 -47 57 -50 60
-3 3 -27 32 -55 65 -27 33 -52 62 -55 65 -3 3 -30 34 -60 70 -30 36 -57 67
-60 70 -3 3 -29 33 -59 68 -29 34 -56 62 -60 62 -3 0 -14 -28 -24 -62z"/>
<path d="M6676 3249 c-89 -39 -146 -66 -441 -209 -88 -43 -207 -100 -265 -128
-58 -27 -181 -87 -275 -132 -93 -45 -215 -104 -270 -130 -55 -26 -172 -83
-260 -125 -88 -43 -218 -106 -290 -140 -285 -137 -607 -293 -965 -467 -124
-61 -250 -122 -280 -136 -56 -26 -149 -38 -179 -22 -9 4 -302 150 -651 325
-349 174 -714 357 -810 405 -573 288 -1244 620 -1255 620 -13 0 -12 -9 30
-200 8 -36 17 -76 19 -90 3 -14 19 -90 36 -170 17 -80 33 -156 36 -170 2 -14
7 -36 9 -50 3 -14 7 -36 10 -50 3 -14 9 -47 15 -75 5 -27 12 -63 15 -80 18
-108 48 -168 112 -225 36 -32 220 -129 713 -377 688 -346 1331 -672 1576 -798
254 -132 286 -133 534 -13 80 39 210 102 290 140 80 39 213 103 297 144 300
146 713 345 878 424 55 26 186 89 290 140 105 51 253 123 330 160 428 206 515
251 548 280 20 17 47 55 61 83 23 49 57 188 71 287 3 25 10 61 15 80 5 19 11
52 14 72 3 21 11 59 17 85 13 59 18 81 24 113 6 33 22 109 28 136 3 12 8 38
11 58 3 19 10 55 15 78 6 24 13 59 16 78 3 19 10 52 16 74 6 21 9 40 7 41 -2
2 -43 -14 -92 -36z"/>
</g>
</svg>
