<?xml version="1.0" encoding="utf-8"?>
<!-- Generator: Adobe Illustrator 18.1.0, SVG Export Plug-In . SVG Version: 6.00 Build 0)  -->
<!DOCTYPE svg PUBLIC "-//W3C//DTD SVG 1.1//EN" "http://www.w3.org/Graphics/SVG/1.1/DTD/svg11.dtd">
<svg version="1.1" id="Layer_2" xmlns="http://www.w3.org/2000/svg" xmlns:xlink="http://www.w3.org/1999/xlink" x="0px" y="0px"
	 width="390px" height="226px" viewBox="15 140 390 226" enable-background="new 15 140 390 226" xml:space="preserve">
<g>
	<path fill="#231F20" d="M317.1,269.1c-1.9,0-3.7,0.2-5.6,0.2h-2.2v1.1h2.2v13.8h-2.1v1.1h10.7v-1.1h-3.1v-7.3c0-1.6,0.2-2.3,1-3.8
		c1.5-2.9,2.6-2.4,2.5-2.2c-0.3,0.7-0.5,1.1-0.5,1.8c0,1.5,1.1,2.4,2.6,2.4c1.6,0,2.9-1.2,2.9-2.8c0-2.1-1.3-3.4-3.4-3.4
		c-2.7,0-4.3,2-5,4.4h-0.1V269.1z M300.1,276.2c-3.6,0.1-10.4,1.3-10.4,6c0,2.5,2.6,3.8,4.8,3.8c2.2,0,4.3-1.1,5.7-2.8
		c0.4,1.3,1.9,2.8,3.6,2.8c2,0,3.1-0.6,4.2-2.3l-0.7-0.8c-0.2,0.3-0.7,0.6-1,0.6c-1.1,0-1.2-1-1.2-1.9v-9.9c0-1.2-2.2-2.7-7.5-2.7
		c-2.5,0-6.9,1.1-6.9,4.3c0,1.5,1.2,2.4,2.6,2.4c1.8,0,2.6-1.1,2.6-2.8c0-0.3-0.2-0.7-0.4-1c-0.2-0.3-0.4-0.7-0.4-0.9
		c0-0.7,1.7-1,2.2-1c3,0,2.8,1.3,2.8,3.4V276.2z M300.1,281.3c0,1.1-0.9,2.4-2.8,2.4c-1.6,0-2.4-1.8-2.4-3.2c0-2.9,3-3.2,5.2-3.3
		V281.3z M275.7,275.8V272c0-1.1,0.7-1.9,2.5-1.9c2,0,2.8,0.7,2.8,1.7v4H275.7z M284.6,276.9c0.7,0,1.9,0.2,1.9-0.8
		c0-4.2-3.9-7-7.9-7c-4.6,0-9.5,3.1-9.5,8.6c0,5.5,4.6,8.4,9.6,8.4c3.8,0,6.8-1.7,7.9-5.5l-0.9-0.3c-0.9,3.2-3.5,4.8-6.7,4.8
		c-2.1,0-3.3-0.7-3.3-2.8v-5.2H284.6z M241,270.4h2.1l6.1,15.6h0.9l4.2-10.1h0L259,286h0.9l5.3-14.6c0.1-0.3,0.2-1,0.9-1h1.5v-1.1
		h-6.1v1.1h1.5c0.5,0,1.2,0.3,1,1l-2.6,7.5h-0.1l-4.1-9.6h-1.2l-4,9.5h-0.1l-3-8.4h2v-1.1H241V270.4z M228.4,275.8V272
		c0-1.1,0.7-1.9,2.5-1.9c2,0,2.8,0.7,2.8,1.7v4H228.4z M237.3,276.9c0.7,0,1.9,0.2,1.9-0.8c0-4.2-3.9-7-7.9-7
		c-4.6,0-9.5,3.1-9.5,8.6c0,5.5,4.6,8.4,9.6,8.4c3.8,0,6.8-1.7,7.9-5.5l-0.9-0.3c-0.9,3.2-3.5,4.8-6.7,4.8c-2.1,0-3.3-0.7-3.3-2.8
		v-5.2H237.3z M200.9,270.4h1.8l7.5,15l-1.5,3.5c-0.3,0.7-0.5,1.5-1.3,1.8c-0.4,0.2-0.7-0.2-1-0.5c-0.3-0.4-0.7-0.8-1.7-0.8
		c-1.3,0-2.4,1-2.4,2.4c0,1.3,1.3,2.5,2.6,2.5c1.8,0,3.1-1.3,4-3.2l8.1-18.7c0.3-0.7,0.7-2,1.5-2h1.3v-1.1h-6.4v1.1h1.5
		c0.6,0,1.4,0.3,1,1.2l-3.1,7.6h-0.2l-3.9-8.8h1.9v-1.1h-9.8V270.4z M187.9,275.8V272c0-1.1,0.7-1.9,2.5-1.9c2,0,2.8,0.7,2.8,1.7v4
		H187.9z M196.9,276.9c0.7,0,1.9,0.2,1.9-0.8c0-4.2-3.9-7-7.9-7c-4.6,0-9.5,3.1-9.5,8.6c0,5.5,4.6,8.4,9.6,8.4
		c3.8,0,6.8-1.7,7.9-5.5l-0.9-0.3c-0.9,3.2-3.5,4.8-6.7,4.8c-2.1,0-3.3-0.7-3.3-2.8v-5.2H196.9z"/>
	<path fill="#231F20" d="M117.4,231.8c0,5-2.8,9.5-8.7,9.5h-8v-19h8C114.7,222.3,117.4,226.8,117.4,231.8 M164.5,231.8
		c0,5-2.8,9.5-8.7,9.5h-8v-19h8C161.7,222.3,164.5,226.8,164.5,231.8 M209.9,244.6h-13.3l6.3-12.5L209.9,244.6z M266.9,246.3
		c0,7.1-4.4,9.7-9.3,9.7h-5.3v-33.8h5.3c4.9,0,9.3,2.6,9.3,9.7V246.3z M306.2,244.6H293l6.3-12.5L306.2,244.6z M127.4,231.8
		c0-6.1-4.4-12.2-13.5-12.2H85.1v0.7c0.5,0,4.8,0.2,4.8,4.7v28.2c0,4.5-4.4,4.7-4.8,4.7v0.7h20.5V258c-0.5,0-4.8-0.2-4.8-4.7v-9.4
		h13.1C123,243.9,127.4,237.8,127.4,231.8 M181.1,258.7v-0.6l-14.5-11.9c-1.4,0.4-3.1,0.6-4.7,0.6c-3.7,0-7.9-0.9-9.8-2.9h9
		c9.1,0,13.4-6.1,13.4-12.1c0-6.1-4.3-12.2-13.4-12.2h-28.7v0.7c0.5,0,4.8,0.2,4.8,4.7v28.2c0,4.5-4.4,4.7-4.8,4.7v0.7h20.4V258
		c-0.5,0-4.8-0.2-4.8-4.7v-9.4l17.9,14.8H181.1z M232.5,258.7V258c-2.6,0-3.9-2.1-5-4.2l-19.2-34.2h-15.5v0.7c1.8,0,3.6,0.6,5.3,3.5
		l3.3,5.6l-11.8,24.1c-1.4,2.9-2.9,4.5-5.2,4.5v0.7h9.9V258c-1.7,0-2.3-0.9-2.3-2.3c0-0.9,0.3-1.8,0.7-2.6l2.8-5.8h16l3.7,6.6
		c0.4,0.8,0.7,1.6,0.7,2.2c0,1.4-0.9,2-2.9,2v0.7H232.5z M279.9,239.2c0-12.9-10.6-19.5-20.7-19.5h-22.6v0.7c0.5,0,4.8,0.2,4.8,4.7
		v28.2c0,4.5-4.4,4.7-4.8,4.7v0.7h22.6C269.3,258.7,279.9,252.1,279.9,239.2 M328.9,258.7V258c-2.6,0-3.9-2.1-5-4.2l-19.2-34.2
		h-15.5v0.7c1.8,0,3.6,0.6,5.3,3.5l3.3,5.6l-11.8,24.1c-1.4,2.9-2.9,4.5-5.2,4.5v0.7h9.9V258c-1.7,0-2.3-0.9-2.3-2.3
		c0-0.9,0.3-1.8,0.7-2.6l2.8-5.8h16l3.7,6.6c0.4,0.8,0.7,1.6,0.7,2.2c0,1.4-0.9,2-2.9,2v0.7H328.9z"/>
</g>
</svg>
